<svg xmlns="http://www.w3.org/2000/svg" height="312" preserveAspectRatio="none" style="width:356px;height:312px;" width="356"><defs><filter height="300%" id="a" width="300%" x="-1" y="-1"><feGaussianBlur result="blurOut" stdDeviation="2"/><feColorMatrix in="blurOut" result="blurOut2" values="0 0 0 0 0 0 0 0 0 0 0 0 0 0 0 0 0 0 .4 0"/><feOffset dx="4" dy="4" in="blurOut2" result="blurOut3"/><feBlend in="SourceGraphic" in2="blurOut3"/></filter></defs><path fill="#FEFECE" filter="url(#a)" style="stroke:#a80036;stroke-width:1.5" d="M185.5 237h99v61.836h-99z"/><circle cx="214.9" cy="253" fill="#B4A7E5" style="stroke:#a80036;stroke-width:1" r="11"/><path d="M215.9 250v6h2.484l.516.625v.75l-.516.625h-6.968l-.516-.625v-.75l.516-.625h2.484v-6h-2.484l-.516-.625v-.75l.516-.625h6.968l.516.625v.75l-.516.625H215.9Z"/><text font-family="sans-serif" font-size="12" font-style="italic" textLength="35" x="232.1" y="257.91">Token</text><path style="stroke:#a80036;stroke-width:1.5" d="M186.5 269h97m-97 8h97"/><text font-family="sans-serif" font-size="11" textLength="87" x="191.5" y="292.419">avaliar() : boolean</text><path fill="#FEFECE" filter="url(#a)" style="stroke:#a80036;stroke-width:1.5" d="M116 115h108v61.836H116z"/><circle cx="140.9" cy="131" fill="#A9DCDF" style="stroke:#a80036;stroke-width:1" r="11"/><path d="M142.65 132.5h-3.297l-.437 1h.468l.516.625v.75l-.516.625h-2.969l-.515-.625v-.75l.516-.625h.609l2.313-6h-1.922l-.516-.625v-.75l.516-.625h4.718l2.688 8h.562l.516.625v.75l-.516.625h-2.968l-.516-.625v-.75l.516-.625h.515l-.281-1Zm-.547-2-1.203-3.578-1.031 3.578h2.234Z"/><text font-family="sans-serif" font-size="12" font-style="italic" textLength="54" x="157.1" y="135.91">Operacao</text><path style="stroke:#a80036;stroke-width:1.5" d="M117 147h106"/><text font-family="sans-serif" font-size="11" textLength="96" x="122" y="162.419">operandos : Token[]</text><path style="stroke:#a80036;stroke-width:1.5" d="M117 168.836h106"/><path fill="#FEFECE" filter="url(#a)" style="stroke:#a80036;stroke-width:1.5" d="M259.5 115h83v61.836h-83z"/><circle cx="278.1" cy="131" fill="#ADD1B2" style="stroke:#a80036;stroke-width:1" r="11"/><path d="M280.1 127.5q.203-.5.438-.75.234-.25.5-.25.468 0 .765.281t.297.938v1.562q0 .656-.281.938-.281.281-.719.281-.39 0-.64-.172t-.36-.625q-.047-.312-.219-.484-.312-.328-.875-.516-.562-.203-1.125-.203-.703 0-1.297.281-.578.281-1.03.906-.454.625-.454 1.485v.922q0 1.031.844 1.719.844.687 2.344.687.89 0 1.515-.203.36-.11.766-.469.265-.203.406-.266.14-.062.313-.062.328 0 .562.266.25.25.25.609 0 .344-.344.75-.5.594-1.297.922-1.046.453-2.328.453-1.5 0-2.703-.594-.969-.469-1.656-1.484-.672-1.016-.672-2.219v-1.094q0-1.25.594-2.343.61-1.094 1.656-1.672 1.063-.594 2.25-.594.719 0 1.344.25.625.25 1.156.75Z"/><text font-family="sans-serif" font-size="12" textLength="43" x="292.9" y="135.91">Variavel</text><path style="stroke:#a80036;stroke-width:1.5" d="M260.5 147h81"/><text font-family="sans-serif" font-size="11" textLength="71" x="265.5" y="162.419">valor : boolean</text><path style="stroke:#a80036;stroke-width:1.5" d="M260.5 168.836h81"/><path fill="#FEFECE" filter="url(#a)" style="stroke:#a80036;stroke-width:1.5" d="M7 7h82v48H7z"/><circle cx="22" cy="23" fill="#ADD1B2" style="stroke:#a80036;stroke-width:1" r="11"/><path d="M24 19.5q.203-.5.438-.75.234-.25.5-.25.468 0 .765.281.297.282.297.938v1.562q0 .657-.281.938-.282.281-.719.281-.39 0-.64-.172t-.36-.625q-.047-.312-.219-.484-.312-.328-.875-.516-.562-.203-1.125-.203-.703 0-1.297.281-.578.282-1.03.907-.454.625-.454 1.484v.922q0 1.031.844 1.718.843.688 2.343.688.891 0 1.516-.203.36-.11.766-.469.265-.203.406-.265.14-.063.313-.063.328 0 .562.266.25.25.25.609 0 .344-.344.75-.5.594-1.297.922-1.047.453-2.328.453-1.5 0-2.703-.594-.969-.468-1.656-1.484Q17 25.406 17 24.203V23.11q0-1.25.594-2.343.61-1.094 1.656-1.672 1.063-.594 2.25-.594.719 0 1.344.25.625.25 1.156.75Z"/><text font-family="sans-serif" font-size="12" textLength="50" x="36" y="27.91">Negacao</text><path style="stroke:#a80036;stroke-width:1.5" d="M8 39h80M8 47h80"/><path fill="#FEFECE" filter="url(#a)" style="stroke:#a80036;stroke-width:1.5" d="M124 7h92v48h-92z"/><circle cx="139" cy="23" fill="#ADD1B2" style="stroke:#a80036;stroke-width:1" r="11"/><path d="M141 19.5q.203-.5.438-.75.234-.25.5-.25.468 0 .765.281.297.282.297.938v1.562q0 .657-.281.938-.281.281-.719.281-.39 0-.64-.172t-.36-.625q-.047-.312-.219-.484-.312-.328-.875-.516-.562-.203-1.125-.203-.703 0-1.297.281-.578.282-1.03.907-.454.625-.454 1.484v.922q0 1.031.844 1.718.844.688 2.344.688.89 0 1.515-.203.36-.11.766-.469.265-.203.406-.265.14-.063.313-.063.328 0 .562.266.25.25.25.609 0 .344-.344.75-.5.594-1.297.922-1.047.453-2.328.453-1.5 0-2.703-.594-.969-.468-1.656-1.484-.672-1.016-.672-2.219V23.11q0-1.25.594-2.343.61-1.094 1.656-1.672 1.063-.594 2.25-.594.719 0 1.344.25.625.25 1.156.75Z"/><text font-family="sans-serif" font-size="12" textLength="60" x="153" y="27.91">Conjuncao</text><path style="stroke:#a80036;stroke-width:1.5" d="M125 39h90m-90 8h90"/><path fill="#FEFECE" filter="url(#a)" style="stroke:#a80036;stroke-width:1.5" d="M251 7h88v48h-88z"/><circle cx="266" cy="23" fill="#ADD1B2" style="stroke:#a80036;stroke-width:1" r="11"/><path d="M268 19.5q.203-.5.438-.75.234-.25.5-.25.468 0 .765.281.297.282.297.938v1.562q0 .657-.281.938-.281.281-.719.281-.39 0-.64-.172t-.36-.625q-.047-.312-.219-.484-.312-.328-.875-.516-.562-.203-1.125-.203-.703 0-1.297.281-.578.282-1.03.907-.454.625-.454 1.484v.922q0 1.031.844 1.718.844.688 2.344.688.89 0 1.515-.203.36-.11.766-.469.265-.203.406-.265.14-.063.313-.063.328 0 .562.266.25.25.25.609 0 .344-.344.75-.5.594-1.297.922-1.046.453-2.328.453-1.5 0-2.703-.594-.969-.468-1.656-1.484-.672-1.016-.672-2.219V23.11q0-1.25.594-2.343.61-1.094 1.656-1.672 1.063-.594 2.25-.594.719 0 1.344.25.625.25 1.156.75Z"/><text font-family="sans-serif" font-size="12" textLength="56" x="280" y="27.91">Disjuncao</text><path style="stroke:#a80036;stroke-width:1.5" d="M252 39h86m-86 8h86"/><path d="M186.4 177.28c6.85 12.65 14.98 27.66 22.61 41.74m6.22-3.21 3.37 20.92-15.68-14.25 12.31-6.67zm69.12-38.53c-6.96 12.65-15.21 27.66-22.96 41.74m6.03 3.56-15.77 14.15 3.5-20.9 12.27 6.75zM72.98 55.14c14.2 13.15 32.45 30.06 49.29 45.65m4.99-4.92 9.91 18.73-19.43-8.46 9.52-10.27zM170 55.14v39.39m7 .07-7 20-7-20h14zm92.4-39.46c-14.62 13.22-33.44 30.23-50.76 45.89m4.52 5.35-19.53 8.22 10.14-18.61 9.39 10.39z" fill="none" style="stroke:#a80036;stroke-width:1"/></svg>
